# xmcd
#
# Track frame offsets:
#	150
#	17144
#	34755
#	51293
#	69631
#	87865
#	106237
#	125450
#	142150
#	159521
#	176139
#	192994
#
# Disc length: 2811 seconds
#
# Revision: 0
# Processed by: cddbd v1.5.2PL0 Copyright (c) Steve Scherf et al.
# Submitted via: audiograbber 1.83.01
#
DISCID=a90af90c
DTITLE=JonesTM - HC200722
DYEAR=2007
DGENRE=Country
TTITLE0=Katie Armiger - 17 In Abilene
TTITLE1=Sherry Lynn - Scarecrow Dance
TTITLE2=Lori McKenna - Unglamorous [Edit]
TTITLE3=Victor Fields - Thinking Of You
TTITLE4=Smokie Norful - Celebrate [Live]
TTITLE5=Lalah Hathaway - Love's Holiday
TTITLE6=Corinne Bailey Rae - Breathless [Album Version]
TTITLE7=Deniece Williams - The Only Thing Missing Is You
TTITLE8=MichaelAndMike.com - Bad Time To Break Up [Radio Edit]
TTITLE9=Brian Dale Feat. Brian Lynch - Free And Renewed
TTITLE10=Marcus Johnson - Road To Los Suenos
TTITLE11=Emily Saxe - Walk On By
EXTD=
EXTT0=
EXTT1=
EXTT2=
EXTT3=
EXTT4=
EXTT5=
EXTT6=
EXTT7=
EXTT8=
EXTT9=
EXTT10=
EXTT11=
PLAYORDER=
